<svg version="1.1" viewBox="0.0 0.0 300.0 300.0" fill="none" stroke="none" stroke-linecap="square" stroke-miterlimit="10" 
  xmlns:xlink="http://www.w3.org/1999/xlink" 
  xmlns="http://www.w3.org/2000/svg">
  <clipPath id="p.0">
    <path d="m0 0l300.0 0l0 300.0l-300.0 0l0 -300.0z" clip-rule="nonzero"/>
  </clipPath>
  <g clip-path="url(#p.0)">
    <path fill="#000000" fill-opacity="0.0" d="m0 0l300.0 0l0 300.0l-300.0 0z" fill-rule="evenodd"/>
    <path fill="#000000" d="m0 0l300.0 0l0 300.0l-300.0 0z" fill-rule="evenodd"/>
    <path stroke="#000000" stroke-width="1.0" stroke-linejoin="round" stroke-linecap="butt" d="m0 0l300.0 0l0 300.0l-300.0 0z" fill-rule="evenodd"/>
    <path fill="#ffffff" d="m124.597115 113.3695l0 0c0 -11.150063 11.372673 -20.188972 25.401573 -20.188972l0 0c14.0289 0 25.40158 9.03891 25.40158 20.188972l0 0c0 11.150063 -11.372681 20.188972 -25.40158 20.188972l0 0c-14.0289 0 -25.401573 -9.03891 -25.401573 -20.188972z" fill-rule="evenodd"/>
    <path stroke="#ffffff" stroke-width="4.0" stroke-linejoin="round" stroke-linecap="butt" d="m124.597115 113.3695l0 0c0 -11.150063 11.372673 -20.188972 25.401573 -20.188972l0 0c14.0289 0 25.40158 9.03891 25.40158 20.188972l0 0c0 11.150063 -11.372681 20.188972 -25.40158 20.188972l0 0c-14.0289 0 -25.401573 -9.03891 -25.401573 -20.188972z" fill-rule="evenodd"/>
    <path fill="#000000" fill-opacity="0.0" d="m102.0 197.05173l0 0c0 -31.397598 21.490334 -56.850388 48.0 -56.850388l0 0c12.730392 0 24.939377 5.9895782 33.94113 16.651093c9.0017395 10.661514 14.058868 25.121628 14.058868 40.199295l0 0c0 31.397598 -21.490326 56.850388 -48.0 56.850388l0 0c-26.509666 0 -48.0 -25.45279 -48.0 -56.850388z" fill-rule="evenodd"/>
    <path stroke="#ffffff" stroke-width="4.0" stroke-linejoin="round" stroke-linecap="butt" d="m102.0 197.05173l0 0c0 -31.397598 21.490334 -56.850388 48.0 -56.850388l0 0c12.730392 0 24.939377 5.9895782 33.94113 16.651093c9.0017395 10.661514 14.058868 25.121628 14.058868 40.199295l0 0c0 31.397598 -21.490326 56.850388 -48.0 56.850388l0 0c-26.509666 0 -48.0 -25.45279 -48.0 -56.850388z" fill-rule="evenodd"/>
    <path fill="#000000" fill-opacity="0.0" d="m118.032104 135.68877c7.555786 -6.597168 -24.290733 -23.863632 -41.43329 -29.486824c-17.142548 -5.623184 -53.86622 -10.849472 -61.422005 -4.252304c-7.5557857 6.5971756 -1.0552549 38.212166 16.087296 43.83535c17.14255 5.623184 79.21222 -3.4990387 86.768 -10.096222z" fill-rule="evenodd"/>
    <path stroke="#ffffff" stroke-width="4.0" stroke-linejoin="round" stroke-linecap="butt" d="m118.032104 135.68877c7.555786 -6.597168 -24.290733 -23.863632 -41.43329 -29.486824c-17.142548 -5.623184 -53.86622 -10.849472 -61.422005 -4.252304c-7.5557857 6.5971756 -1.0552549 38.212166 16.087296 43.83535c17.14255 5.623184 79.21222 -3.4990387 86.768 -10.096222z" fill-rule="evenodd"/>
    <path fill="#000000" fill-opacity="0.0" d="m120.63612 133.46866c-2.7765198 -7.4832764 -65.53215 3.6634827 -80.35231 11.227692c-14.820166 7.564209 -11.345198 26.674301 -8.56868 34.157593c2.776516 7.4832764 10.407619 18.306335 25.227783 10.742126c14.820168 -7.564209 66.46972 -48.64412 63.693207 -56.12741z" fill-rule="evenodd"/>
    <path stroke="#ffffff" stroke-width="4.0" stroke-linejoin="round" stroke-linecap="butt" d="m120.63612 133.46866c-2.7765198 -7.4832764 -65.53215 3.6634827 -80.35231 11.227692c-14.820166 7.564209 -11.345198 26.674301 -8.56868 34.157593c2.776516 7.4832764 10.407619 18.306335 25.227783 10.742126c14.820168 -7.564209 66.46972 -48.64412 63.693207 -56.12741z" fill-rule="evenodd"/>
    <path fill="#000000" d="m147.3937 255.62935l5.209961 0l-2.6049805 8.398941z" fill-rule="evenodd"/>
    <path stroke="#ffffff" stroke-width="4.0" stroke-linejoin="round" stroke-linecap="butt" d="m147.3937 255.62935l5.209961 0l-2.6049805 8.398941z" fill-rule="evenodd"/>
    <path fill="#000000" d="m214.5315 38.776325l0 0c0 -1.3220024 1.071701 -2.3936996 2.3937073 -2.3936996l0 0c0.6348419 0 1.2436981 0.25219345 1.6925964 0.7010994c0.44891357 0.44890594 0.7010956 1.0577507 0.7010956 1.6926003l0 0c0 1.3220062 -1.0716858 2.3936996 -2.393692 2.3936996l0 0c-1.3220062 0 -2.3937073 -1.0716934 -2.3937073 -2.3936996z" fill-rule="evenodd"/>
    <path stroke="#ffffff" stroke-width="4.0" stroke-linejoin="round" stroke-linecap="butt" d="m214.5315 38.776325l0 0c0 -1.3220024 1.071701 -2.3936996 2.3937073 -2.3936996l0 0c0.6348419 0 1.2436981 0.25219345 1.6925964 0.7010994c0.44891357 0.44890594 0.7010956 1.0577507 0.7010956 1.6926003l0 0c0 1.3220062 -1.0716858 2.3936996 -2.393692 2.3936996l0 0c-1.3220062 0 -2.3937073 -1.0716934 -2.3937073 -2.3936996z" fill-rule="evenodd"/>
    <path fill="#000000" fill-opacity="0.0" d="m181.96689 135.68877c-7.555786 -6.597168 24.290741 -23.863632 41.43329 -29.486824c17.142548 -5.623184 53.86621 -10.849472 61.421997 -4.252304c7.555786 6.5971756 1.0552673 38.212166 -16.08728 43.83535c-17.142563 5.623184 -79.21222 -3.4990387 -86.768005 -10.096222z" fill-rule="evenodd"/>
    <path stroke="#ffffff" stroke-width="4.0" stroke-linejoin="round" stroke-linecap="butt" d="m181.96689 135.68877c-7.555786 -6.597168 24.290741 -23.863632 41.43329 -29.486824c17.142548 -5.623184 53.86621 -10.849472 61.421997 -4.252304c7.555786 6.5971756 1.0552673 38.212166 -16.08728 43.83535c-17.142563 5.623184 -79.21222 -3.4990387 -86.768005 -10.096222z" fill-rule="evenodd"/>
    <path fill="#000000" fill-opacity="0.0" d="m179.36287 133.46866c2.7765198 -7.4832764 65.53215 3.6634827 80.35231 11.227692c14.82016 7.564209 11.345184 26.674301 8.568665 34.157593c-2.7765198 7.4832764 -10.407593 18.306335 -25.227768 10.742126c-14.82016 -7.564209 -66.46973 -48.64412 -63.693207 -56.12741z" fill-rule="evenodd"/>
    <path stroke="#ffffff" stroke-width="4.0" stroke-linejoin="round" stroke-linecap="butt" d="m179.36287 133.46866c2.7765198 -7.4832764 65.53215 3.6634827 80.35231 11.227692c14.82016 7.564209 11.345184 26.674301 8.568665 34.157593c-2.7765198 7.4832764 -10.407593 18.306335 -25.227768 10.742126c-14.82016 -7.564209 -66.46973 -48.64412 -63.693207 -56.12741z" fill-rule="evenodd"/>
    <path fill="#000000" fill-opacity="0.0" d="m162.51312 86.53748c2.3648376 -4.6815414 5.0673676 -20.125984 14.18898 -28.089241c9.121613 -7.963257 33.783905 -16.408573 40.54068 -19.690289" fill-rule="evenodd"/>
    <path stroke="#ffffff" stroke-width="4.0" stroke-linejoin="round" stroke-linecap="butt" d="m162.51312 86.53748c2.3648376 -4.6815414 5.0673676 -20.125984 14.18898 -28.089241c9.121613 -7.963257 33.783905 -16.408573 40.54068 -19.690289" fill-rule="evenodd"/>
    <path fill="#000000" d="m84.6063 38.365406l0 0c0 -1.3220024 -1.071701 -2.3936996 -2.3936996 -2.3936996l0 0c-0.63484955 0 -1.2436981 0.25219345 -1.6926041 0.7010994c-0.44890594 0.44890594 -0.7010956 1.0577507 -0.7010956 1.6926003l0 0c0 1.3220062 1.0716934 2.3937035 2.3936996 2.3937035l0 0c1.3219986 0 2.3936996 -1.0716972 2.3936996 -2.3937035z" fill-rule="evenodd"/>
    <path stroke="#ffffff" stroke-width="4.0" stroke-linejoin="round" stroke-linecap="butt" d="m84.6063 38.365406l0 0c0 -1.3220024 -1.071701 -2.3936996 -2.3936996 -2.3936996l0 0c-0.63484955 0 -1.2436981 0.25219345 -1.6926041 0.7010994c-0.44890594 0.44890594 -0.7010956 1.0577507 -0.7010956 1.6926003l0 0c0 1.3220062 1.0716934 2.3937035 2.3936996 2.3937035l0 0c1.3219986 0 2.3936996 -1.0716972 2.3936996 -2.3937035z" fill-rule="evenodd"/>
    <path fill="#000000" fill-opacity="0.0" d="m139.33595 86.53748c-2.3648224 -4.6815414 -5.0673676 -20.125984 -14.188972 -28.089241c-9.121605 -7.963257 -33.783897 -16.408573 -40.54068 -19.690289" fill-rule="evenodd"/>
    <path stroke="#ffffff" stroke-width="4.0" stroke-linejoin="round" stroke-linecap="butt" d="m139.33595 86.53748c-2.3648224 -4.6815414 -5.0673676 -20.125984 -14.188972 -28.089241c-9.121605 -7.963257 -33.783897 -16.408573 -40.54068 -19.690289" fill-rule="evenodd"/>
    <path fill="#000000" fill-opacity="0.0" d="m111.055115 229.85774c6.5211563 -1.390564 26.02385 -8.134781 39.126923 -8.34343c13.103058 -0.20864868 32.909576 5.909622 39.4915 7.0915375" fill-rule="evenodd"/>
    <path stroke="#ffffff" stroke-width="12.0" stroke-linejoin="round" stroke-linecap="butt" d="m111.055115 229.85774c6.5211563 -1.390564 26.02385 -8.134781 39.126923 -8.34343c13.103058 -0.20864868 32.909576 5.909622 39.4915 7.0915375" fill-rule="evenodd"/>
    <path fill="#000000" fill-opacity="0.0" d="m101.99969 201.9236c7.9629517 -1.3905792 31.77761 -8.134781 47.777718 -8.34343c16.000107 -0.20864868 40.18576 5.909607 48.222916 7.0915375" fill-rule="evenodd"/>
    <path stroke="#ffffff" stroke-width="12.0" stroke-linejoin="round" stroke-linecap="butt" d="m101.99969 201.9236c7.9629517 -1.3905792 31.77761 -8.134781 47.777718 -8.34343c16.000107 -0.20864868 40.18576 5.909607 48.222916 7.0915375" fill-rule="evenodd"/>
    <path fill="#000000" fill-opacity="0.0" d="m103.81628 178.70395c7.590111 -1.390564 30.289711 -8.134781 45.540657 -8.34343c15.250931 -0.20864868 38.30417 5.909622 45.964996 7.0915375" fill-rule="evenodd"/>
    <path stroke="#ffffff" stroke-width="4.0" stroke-linejoin="round" stroke-linecap="butt" d="m103.81628 178.70395c7.590111 -1.390564 30.289711 -8.134781 45.540657 -8.34343c15.250931 -0.20864868 38.30417 5.909622 45.964996 7.0915375" fill-rule="evenodd"/>
    <path fill="#000000" fill-opacity="0.0" d="m106.2021 174.91678c7.205902 -1.390564 28.75647 -8.134766 43.235428 -8.343414c14.478943 -0.20864868 36.365234 5.909607 43.63829 7.091522" fill-rule="evenodd"/>
    <path stroke="#ffffff" stroke-width="8.0" stroke-linejoin="round" stroke-linecap="butt" d="m106.2021 174.91678c7.205902 -1.390564 28.75647 -8.134766 43.235428 -8.343414c14.478943 -0.20864868 36.365234 5.909607 43.63829 7.091522" fill-rule="evenodd"/>
    <path fill="#000000" fill-opacity="0.0" d="m106.56693 171.16801c7.169754 -1.390564 28.612206 -8.134781 43.01853 -8.34343c14.406326 -0.20864868 36.182816 5.909622 43.419388 7.0915375" fill-rule="evenodd"/>
    <path stroke="#ffffff" stroke-width="4.0" stroke-linejoin="round" stroke-linecap="butt" d="m106.56693 171.16801c7.169754 -1.390564 28.612206 -8.134781 43.01853 -8.34343c14.406326 -0.20864868 36.182816 5.909622 43.419388 7.0915375" fill-rule="evenodd"/>
  </g>
</svg>